<svg width="77" height="12" viewBox="0 0 77 12" fill="none" xmlns="http://www.w3.org/2000/svg">
<path d="M0.285484 11.8319H4.34943C7.6409 11.8319 11.2346 9.2437 11.2346 5.04202C11.2346 1.51261 8.69887 0.0672269 5.45778 0.0672269H0L0.201518 0.285715H1.29307V10.4874C1.25949 10.8571 1.05797 11.6134 0.100759 11.6134L0.285484 11.8319ZM8.64849 4.31933C8.64849 8.95798 6.12951 11.6134 4.14792 11.6134H3.6945V1.59664C3.6945 1.59664 3.64412 0.302522 4.88682 0.302522H5.59213C7.37221 0.302522 8.64849 1.02521 8.64849 4.31933ZM12.6348 11.8319H17.3201L17.1185 11.6134H16.027V1.59664C16.027 1.59664 15.9766 0.302522 17.2193 0.302522L17.0178 0.0672269H12.3325L12.534 0.285715H13.6256V10.4874C13.592 10.8571 13.3905 11.6134 12.4333 11.6134L12.6348 11.8319ZM24.3283 1.44538C24.3115 1.21008 24.3451 0.285715 25.739 0.285715L25.5374 0.0672269H19.5927L19.7942 0.285715L21.2888 0.302522C19.9789 3.91597 18.9209 6.77311 17.5775 10.1681C17.5943 11.126 18.1316 11.8319 19.2904 11.8319H21.6078L22.7498 7.31092L22.5986 7.2437C21.9605 9.66387 20.8018 11.6134 19.4415 11.6134C18.7194 11.6134 18.3332 11.1933 18.3332 10.1849C18.3835 9.21008 20.1972 4.13445 21.4567 0.336135L24.1772 10.437C24.194 10.605 24.2108 11.6134 22.7666 11.6134L22.9681 11.8319H28.4259L28.2243 11.6134H27.0488L24.3283 1.44538ZM36.9006 6.36975C36.0778 6.06723 35.3053 5.96639 34.6 5.96639C33.9786 5.96639 33.4412 6.03361 32.971 6.13445L34.4824 5.44538C37.5388 4.16807 38.7647 3.4958 38.7647 2.16807C38.7647 0.974791 37.7739 0 36.3129 0C35.574 0 34.7175 0.252102 33.8107 0.840337L32.1314 1.89916V1.59664C32.1314 1.59664 32.081 0.302522 33.3237 0.302522L33.1222 0.0672269H28.4369L28.6384 0.285715H29.7299V10.4874C29.6964 10.8571 29.4948 11.6134 28.5376 11.6134L28.7391 11.8319H33.7771L33.5756 11.6134H32.1314V6.60504C32.6688 6.47059 33.2397 6.35294 33.7939 6.35294C34.2473 6.35294 34.7007 6.43698 35.1206 6.63866C36.4472 7.2605 37.1693 9.17647 37.9082 10.8908L37.8075 10.8571C37.8075 10.8571 38.0929 11.6134 36.4136 11.6134L36.6152 11.8319H41.7203L41.5356 11.6134H41.1325C39.5875 11.6303 39.873 7.46218 36.9006 6.36975ZM32.1314 6.28571V2.20168L33.8443 1.10924C34.3145 0.806724 34.8015 0.638656 35.2381 0.638656C35.9938 0.638656 36.5648 1.15966 36.5648 2.30252C36.5648 3.10924 36.2793 4.35294 34.3313 5.22689L32.1314 6.28571ZM42.1869 11.8319H46.8721L46.6706 11.6134H45.5791V1.59664C45.5791 1.59664 45.5287 0.302522 46.7713 0.302522L46.5699 0.0672269H41.8846L42.0861 0.285715H43.1776V10.4874C43.1441 10.8571 42.9425 11.6134 41.9853 11.6134L42.1869 11.8319ZM52.5034 12C54.7033 12 56.0132 10.6555 56.92 9.09244V10.4034C56.92 10.4034 56.92 11.6134 55.7445 11.6134L55.946 11.8319H60.6313L60.4298 11.6134H59.3214V1.2437C59.4054 0.857144 59.6573 0.302522 60.4802 0.302522L60.2787 0.0672269H55.5934L55.7949 0.302522H56.92V8.52101C56.0804 10.1681 54.7033 11.3109 53.3095 11.3109C51.5966 11.3109 51.4286 9.57983 51.4286 8.77311V1.32773C51.479 0.941177 51.7141 0.302522 52.5874 0.302522L52.3859 0.0672269H47.7006L47.9021 0.302522H49.0272V9.02521C49.0272 10.5378 50.2531 12 52.5034 12ZM61.6678 11.8319H67.0752L66.8569 11.6134H65.7486C63.5655 9.59664 63.0449 4.77311 62.9441 1.27731C62.9777 1.14286 63.0281 0.957984 63.1624 0.77311L68.1164 9.96639H68.3347L73.3559 0.504203V10.3529C73.3559 10.605 73.2551 11.6134 72.1804 11.6134L72.3819 11.8319H76.9832L76.7817 11.6134H75.7573V1.59664C75.7573 1.59664 75.7069 0.302522 77 0.302522L76.7985 0.0672269H72.1804L72.3819 0.285715H73.2383L69.3927 7.42857L65.5806 0.285715H66.773L66.5211 0.0672269H61.4495L61.6342 0.285715H62.709V10.3361C62.709 10.3361 62.6922 11.6134 61.4831 11.6134L61.6678 11.8319Z" fill="#130E0E"/>
</svg>
