<svg width="79" height="19" viewBox="0 0 79 19" fill="none" xmlns="http://www.w3.org/2000/svg">
<path d="M13.32 18L13.872 13.488L13.656 13.44C12.6 15.984 11.184 17.688 8.496 17.688H6.048V3.384C6.048 3.384 5.976 1.536 7.752 1.536L7.464 1.2H0.768L1.056 1.512H2.616V16.08C2.568 16.608 2.28 17.688 0.912 17.688L1.2 18H13.32ZM24.4472 0.983999C19.3592 0.983999 15.3272 4.584 15.3272 9.6C15.3272 14.4 19.2392 18.24 24.4472 18.24C29.5352 18.24 33.4472 14.376 33.4472 9.6C33.4472 4.728 29.6552 0.983999 24.4472 0.983999ZM24.7592 1.368C27.8072 1.368 29.7992 4.008 29.7272 8.4C29.6792 13.944 27.4232 17.832 24.0632 17.832C21.0632 17.832 18.9512 15.144 19.0472 10.656C19.1192 5.472 21.4232 1.368 24.7592 1.368ZM43.9583 0.983999C39.5183 1.128 35.3903 4.224 35.3903 9.624C35.3903 15.336 39.7103 18.24 45.4703 18.24C48.9503 18.24 49.9823 15.744 51.0143 15.744C51.4943 15.744 51.9503 16.248 52.6463 17.664C52.6703 17.664 52.7903 17.664 52.7903 17.664C52.4063 15.984 51.1103 10.944 50.9663 10.224C50.4863 8.136 46.8143 7.488 45.3743 7.488C45.1343 7.488 42.9983 7.536 42.0623 7.536C41.7983 8.04 40.8383 10.008 40.2863 11.112L40.4543 11.232C40.8143 10.56 43.0463 7.848 45.3503 7.848C46.4303 7.848 47.2703 8.736 47.6302 10.464C47.7503 11.04 48.3983 14.016 48.5182 14.664C48.8783 17.376 46.6703 17.952 45.4703 17.928C42.2303 17.856 39.0623 13.728 38.7743 9.672C38.4863 5.784 39.8063 1.344 43.3343 1.344C46.1663 1.344 48.8063 3.192 50.0303 6.456L50.2463 6.408C50.2223 6.024 49.4062 2.232 49.2863 1.536C47.4863 1.44 45.7583 0.935999 43.9583 0.983999ZM54.4969 18H61.1929L60.9049 17.688H59.3449V3.384C59.3449 3.384 59.2729 1.536 61.0489 1.536L60.7609 1.2H54.0649L54.3529 1.512H55.9129V16.08C55.8649 16.608 55.5769 17.688 54.2089 17.688L54.4969 18ZM63.0728 18H68.6888L68.3768 17.688H67.2968C65.5208 15.192 64.9928 6.648 64.8968 2.64C64.8968 2.544 64.9448 2.328 65.1128 2.112L72.5768 17.688H70.6088L70.9688 18H78.1448L77.8808 17.688H76.3448V6.048C76.3448 6.048 76.3928 1.512 78.5048 1.512L78.2408 1.2H72.6728L72.9608 1.512H74.1368C75.4568 2.472 75.7928 10.704 75.9848 16.392C75.9368 16.488 75.8888 16.656 75.8168 16.824L68.4728 1.512H70.3688L70.0088 1.2H62.7607L63.0248 1.512H64.5608V15.864C64.5608 15.864 64.5368 17.688 62.8088 17.688L63.0728 18Z" fill="#130E0E"/>
</svg>
