<svg width="230" height="230" viewBox="0 0 230 230" fill="none" xmlns="http://www.w3.org/2000/svg">
<path d="M114.533 229.086C84.1567 229.086 55.0248 217.019 33.5458 195.54C12.0668 174.061 4.49881e-07 144.929 4.49881e-07 114.553C-0.00200702 91.8977 6.71435 69.7506 19.2997 50.9126C31.885 32.0746 49.7741 17.3918 70.7044 8.72104C91.6348 0.0503127 114.666 -2.21887 136.886 2.20046C159.106 6.6198 179.517 17.5291 195.537 33.5488C211.556 49.5686 222.466 69.979 226.885 92.1991C231.304 114.419 229.035 137.451 220.365 158.381C211.694 179.311 197.011 197.201 178.173 209.786C159.335 222.371 137.188 229.088 114.533 229.086ZM114.533 1.03535C92.0809 1.03535 70.1335 7.69304 51.4656 20.1665C32.7977 32.64 18.2479 50.369 9.656 71.1116C1.06413 91.8543 -1.18389 114.679 3.19621 136.699C7.57631 158.719 18.3878 178.946 34.2635 194.822C50.1392 210.698 70.3661 221.509 92.3864 225.889C114.407 230.269 137.231 228.021 157.974 219.43C178.717 210.838 196.446 196.288 208.919 177.62C221.392 158.952 228.05 137.005 228.05 114.553C228.007 84.4594 216.034 55.6107 194.754 34.3313C173.475 13.052 144.626 1.07831 114.533 1.03535Z" fill="#231F20"/>
<path d="M133.97 189.947C133.855 189.946 133.745 189.906 133.655 189.835C133.551 189.752 133.483 189.63 133.468 189.497C133.453 189.364 133.491 189.23 133.574 189.125C133.823 188.581 134.036 188.022 134.213 187.45C135.848 182.822 140.141 170.652 149.743 172.459C150.362 170.155 153.397 160.472 161.456 156.939C166.643 154.656 172.824 155.447 179.828 159.294C180.335 156.148 182.933 143.876 193.104 136.446C201.021 130.671 211.587 129.098 224.569 131.788C224.634 131.801 224.696 131.827 224.751 131.864C224.807 131.902 224.854 131.949 224.891 132.005C224.927 132.061 224.953 132.123 224.966 132.188C224.978 132.254 224.978 132.321 224.965 132.386C224.933 132.518 224.852 132.632 224.739 132.706C224.626 132.779 224.488 132.807 224.356 132.782C211.719 130.153 201.417 131.666 193.743 137.269C182.426 145.531 180.782 160.005 180.771 160.147C180.762 160.232 180.732 160.313 180.684 160.383C180.637 160.454 180.573 160.512 180.497 160.553C180.422 160.593 180.339 160.614 180.254 160.614C180.169 160.614 180.085 160.593 180.01 160.553C173.037 156.574 166.947 155.671 161.903 157.883C153.387 161.618 150.677 173.108 150.656 173.189C150.626 173.32 150.546 173.433 150.433 173.504C150.318 173.576 150.18 173.602 150.047 173.575C140.973 171.454 136.934 182.913 135.218 187.785C135.031 188.473 134.758 189.135 134.406 189.754C134.354 189.819 134.288 189.87 134.212 189.904C134.136 189.938 134.053 189.952 133.97 189.947Z" fill="#D1D3D4"/>
<path d="M137.177 204.726H91.8879L103.753 135.574H125.312L137.177 204.726Z" fill="white"/>
<path d="M137.177 205.233H91.888C91.8142 205.234 91.7411 205.219 91.6739 205.189C91.6067 205.158 91.5472 205.113 91.4996 205.057C91.452 205 91.4175 204.934 91.3986 204.863C91.3798 204.791 91.3771 204.717 91.3906 204.644L103.256 135.492C103.275 135.374 103.336 135.266 103.427 135.188C103.518 135.11 103.633 135.067 103.753 135.066H125.312C125.432 135.067 125.548 135.11 125.639 135.188C125.73 135.266 125.79 135.374 125.809 135.492L137.675 204.644C137.688 204.717 137.685 204.791 137.667 204.863C137.648 204.934 137.613 205 137.566 205.057C137.518 205.113 137.458 205.158 137.391 205.189C137.324 205.219 137.251 205.234 137.177 205.233ZM92.5173 204.218H136.589L124.896 136.081H104.19L92.5173 204.218Z" fill="#231F20"/>
<path d="M125.941 146.556H102.556L99.744 135.32H128.753L125.941 146.556Z" fill="white"/>
<path d="M125.941 147.033H102.596C102.482 147.032 102.372 146.994 102.282 146.924C102.192 146.855 102.128 146.757 102.099 146.647L99.3076 135.442C99.287 135.369 99.2845 135.291 99.3005 135.217C99.3164 135.143 99.3502 135.074 99.3989 135.015C99.4435 134.952 99.5028 134.9 99.5718 134.865C99.6407 134.829 99.7173 134.811 99.7948 134.812H128.743C128.82 134.811 128.897 134.829 128.966 134.865C129.035 134.9 129.094 134.952 129.138 135.015C129.187 135.074 129.221 135.143 129.239 135.217C129.256 135.291 129.257 135.368 129.24 135.442L126.428 146.688C126.393 146.789 126.327 146.876 126.24 146.938C126.152 146.999 126.048 147.033 125.941 147.033ZM102.951 146.018H125.545L128.103 135.868H100.394L102.951 146.018Z" fill="#231F20"/>
<path d="M88.031 100.241C88.031 100.241 75.7698 107.905 71.5068 120.684C67.2438 133.462 76.9573 158.137 76.9573 158.137L99.2873 133.96L88.031 100.241Z" fill="white"/>
<path d="M76.9776 158.645H76.8863C76.8026 158.631 76.7239 158.596 76.6581 158.542C76.5922 158.489 76.5414 158.419 76.5107 158.34C76.1047 157.325 66.787 133.33 71.05 120.531C75.313 107.732 87.6554 99.9065 87.7772 99.8253C87.8471 99.7927 87.9234 99.7757 88.0005 99.7757C88.0777 99.7757 88.1539 99.7927 88.2238 99.8253C88.2948 99.8546 88.3587 99.8987 88.4113 99.9547C88.4638 100.011 88.5037 100.077 88.5283 100.15L99.7441 133.838C99.7742 133.924 99.7807 134.016 99.7629 134.106C99.745 134.195 99.7035 134.278 99.6426 134.345L77.3126 158.523C77.2198 158.603 77.1005 158.647 76.9776 158.645ZM87.7772 101.033C85.3717 102.688 75.5972 109.914 72.0143 120.836C68.2791 132.001 75.5871 152.94 77.1603 157.193L98.7088 133.848L87.7772 101.033Z" fill="#231F20"/>
<path d="M141.034 100.241C141.034 100.241 153.295 107.905 157.558 120.684C161.821 133.462 152.108 158.137 152.108 158.137L129.778 133.96L141.034 100.241Z" fill="white"/>
<path d="M152.088 158.645C152.017 158.646 151.947 158.632 151.882 158.604C151.818 158.576 151.76 158.534 151.712 158.482L129.382 134.305C129.321 134.237 129.28 134.154 129.262 134.065C129.244 133.976 129.25 133.883 129.281 133.797L140.517 100.089C140.541 100.016 140.581 99.9499 140.634 99.8938C140.686 99.8378 140.75 99.7937 140.821 99.7644C140.891 99.7318 140.967 99.7148 141.044 99.7148C141.122 99.7148 141.198 99.7318 141.268 99.7644C141.389 99.8456 153.732 107.671 157.995 120.47C162.258 133.27 152.92 157.264 152.534 158.279C152.504 158.358 152.453 158.428 152.387 158.481C152.321 158.535 152.242 158.57 152.159 158.584L152.088 158.645ZM130.377 133.838L151.925 157.183C153.498 152.93 160.806 132.031 157.071 120.826C153.438 109.904 143.714 102.677 141.308 101.023L130.377 133.838Z" fill="#231F20"/>
<path d="M134.285 139.583C140.375 124.997 144.221 103.855 144.221 80.3272C144.221 44.6702 124.551 26.1059 117.08 20.3407C116.269 19.7135 115.273 19.3732 114.248 19.3732C113.223 19.3732 112.227 19.7135 111.417 20.3407C103.946 26.1059 84.2755 44.7007 84.2755 80.3272C84.2755 103.855 88.1121 124.987 94.2123 139.583C94.2123 139.583 100.302 142.628 114.248 142.628C128.194 142.628 134.285 139.583 134.285 139.583Z" fill="#130E0E"/>
<path d="M111.417 20.3407C102.248 27.6445 95.0766 37.1487 90.5684 47.969H137.928C133.42 37.1487 126.248 27.6445 117.08 20.3407C116.269 19.7135 115.273 19.3732 114.248 19.3732C113.223 19.3732 112.227 19.7135 111.417 20.3407Z" fill="white"/>
<path d="M137.928 48.4765H90.5684C90.4853 48.4761 90.4036 48.4552 90.3304 48.4158C90.2572 48.3764 90.1948 48.3196 90.1487 48.2505C90.1026 48.1813 90.0742 48.1019 90.066 48.0192C90.0577 47.9365 90.07 47.853 90.1015 47.7761C94.6274 36.8677 101.854 27.2902 111.102 19.9448C112.003 19.2485 113.11 18.8708 114.248 18.8708C115.387 18.8708 116.494 19.2485 117.395 19.9448C126.643 27.2902 133.869 36.8677 138.395 47.7761C138.427 47.853 138.439 47.9365 138.431 48.0192C138.423 48.1019 138.394 48.1813 138.348 48.2505C138.302 48.3196 138.24 48.3764 138.166 48.4158C138.093 48.4552 138.011 48.4761 137.928 48.4765ZM91.3398 47.4615H137.157C132.683 37.0043 125.68 27.8238 116.776 20.7467C116.05 20.182 115.157 19.8755 114.238 19.8755C113.319 19.8755 112.426 20.182 111.701 20.7467C102.802 27.8236 95.8042 37.0046 91.3398 47.4615Z" fill="#231F20"/>
<path d="M115.426 92.7508C125.522 92.7508 133.706 84.5665 133.706 74.4706C133.706 64.3748 125.522 56.1905 115.426 56.1905C105.33 56.1905 97.1456 64.3748 97.1456 74.4706C97.1456 84.5665 105.33 92.7508 115.426 92.7508Z" fill="white"/>
<path d="M115.426 93.238C111.71 93.24 108.076 92.1398 104.985 90.0766C101.894 88.0134 99.4846 85.0799 98.061 81.6471C96.6375 78.2142 96.264 74.4364 96.9878 70.7912C97.7115 67.1461 99.5001 63.7975 102.127 61.169C104.754 58.5405 108.102 56.7502 111.747 56.0244C115.391 55.2987 119.169 55.6701 122.603 57.0918C126.037 58.5135 128.971 60.9216 131.036 64.0114C133.101 67.1012 134.203 70.734 134.203 74.4503C134.198 79.4297 132.218 84.2038 128.698 87.7257C125.178 91.2476 120.405 93.2299 115.426 93.238ZM115.426 56.698C111.91 56.696 108.472 57.7369 105.548 59.689C102.624 61.6411 100.344 64.4167 98.9978 67.6646C97.6514 70.9126 97.2986 74.4869 97.984 77.9354C98.6694 81.3839 100.362 84.5516 102.848 87.0378C105.335 89.5239 108.502 91.2168 111.951 91.9023C115.399 92.5877 118.974 92.2349 122.222 90.8884C125.47 89.542 128.245 87.2625 130.197 84.3382C132.149 81.414 133.19 77.9764 133.188 74.4605C133.183 69.7512 131.31 65.2364 127.98 61.9064C124.65 58.5765 120.135 56.7033 115.426 56.698Z" fill="#231F20"/>
<path d="M115.426 85.7472C121.654 85.7472 126.702 80.6985 126.702 74.4706C126.702 68.2427 121.654 63.1939 115.426 63.1939C109.198 63.1939 104.149 68.2427 104.149 74.4706C104.149 80.6985 109.198 85.7472 115.426 85.7472Z" fill="#231F20"/>
<path d="M115.426 86.2547C113.095 86.2547 110.817 85.5636 108.879 84.2687C106.941 82.9739 105.431 81.1335 104.539 78.9802C103.647 76.8269 103.413 74.4575 103.868 72.1716C104.323 69.8857 105.445 67.786 107.093 66.1379C108.741 64.4899 110.841 63.3676 113.127 62.9129C115.413 62.4582 117.782 62.6915 119.935 63.5835C122.089 64.4754 123.929 65.9858 125.224 67.9237C126.519 69.8616 127.21 72.1399 127.21 74.4706C127.21 77.5959 125.968 80.5933 123.758 82.8032C121.549 85.0132 118.551 86.2547 115.426 86.2547ZM115.426 63.7014C113.296 63.7014 111.214 64.333 109.443 65.5164C107.672 66.6997 106.292 68.3816 105.476 70.3494C104.661 72.3172 104.448 74.4825 104.864 76.5715C105.279 78.6606 106.305 80.5794 107.811 82.0855C109.317 83.5916 111.236 84.6173 113.325 85.0328C115.414 85.4483 117.579 85.2351 119.547 84.42C121.515 83.6049 123.197 82.2246 124.38 80.4536C125.563 78.6826 126.195 76.6005 126.195 74.4706C126.192 71.6153 125.057 68.8776 123.038 66.8586C121.019 64.8396 118.281 63.7041 115.426 63.7014Z" fill="#231F20"/>
<path d="M124.368 73.953C124.247 73.9542 124.131 73.9117 124.039 73.8333C123.948 73.7549 123.888 73.6459 123.871 73.5267C122.713 65.63 115.751 65.9751 115.456 65.9954C115.324 66.0012 115.194 65.956 115.094 65.8692C114.994 65.7823 114.931 65.6604 114.918 65.5285C114.913 65.4623 114.921 65.3957 114.941 65.3326C114.962 65.2695 114.995 65.2112 115.038 65.161C115.082 65.1109 115.135 65.07 115.195 65.0407C115.254 65.0114 115.319 64.9943 115.385 64.9905C115.466 64.9905 123.576 64.5439 124.865 73.3846C124.883 73.5163 124.848 73.6495 124.768 73.7558C124.688 73.8621 124.57 73.9329 124.439 73.953H124.368Z" fill="white"/>
<path d="M111.488 67.0611C111.411 67.06 111.337 67.0422 111.268 67.0089C111.2 66.9755 111.139 66.9275 111.092 66.8682C111.01 66.7618 110.974 66.6273 110.991 66.4941C111.008 66.361 111.077 66.24 111.183 66.1577C111.8 65.7041 112.517 65.4048 113.274 65.2848C113.408 65.2704 113.543 65.3091 113.649 65.3925C113.755 65.4759 113.825 65.5976 113.842 65.7315C113.851 65.7968 113.846 65.8633 113.829 65.9269C113.811 65.9905 113.782 66.05 113.741 66.1019C113.7 66.1539 113.65 66.1972 113.592 66.2295C113.535 66.2617 113.471 66.2822 113.406 66.2897C112.826 66.3823 112.276 66.612 111.802 66.9596C111.711 67.0263 111.601 67.0618 111.488 67.0611Z" fill="white"/>
<path d="M132.072 134.68H131.909C131.783 134.637 131.68 134.545 131.621 134.425C131.562 134.306 131.553 134.167 131.595 134.041C134.751 124.009 137.303 113.796 139.238 103.459C139.25 103.392 139.275 103.329 139.311 103.272C139.348 103.215 139.395 103.166 139.451 103.127C139.507 103.088 139.569 103.061 139.635 103.046C139.702 103.032 139.77 103.031 139.837 103.043C139.903 103.055 139.967 103.08 140.024 103.116C140.081 103.153 140.13 103.2 140.169 103.256C140.207 103.312 140.235 103.374 140.249 103.441C140.263 103.507 140.265 103.575 140.253 103.642C138.318 114.026 135.752 124.283 132.569 134.356C132.532 134.456 132.464 134.542 132.374 134.6C132.285 134.659 132.179 134.687 132.072 134.68Z" fill="white"/>
<path d="M117.141 163.09C117.015 163.088 116.894 163.039 116.802 162.953C116.71 162.867 116.654 162.749 116.644 162.623L115.629 149.652C115.623 149.585 115.631 149.519 115.652 149.456C115.672 149.393 115.705 149.334 115.749 149.284C115.792 149.234 115.845 149.193 115.905 149.164C115.965 149.135 116.029 149.118 116.096 149.114C116.162 149.108 116.228 149.116 116.292 149.137C116.355 149.157 116.413 149.19 116.463 149.234C116.513 149.277 116.554 149.33 116.583 149.39C116.613 149.449 116.63 149.514 116.634 149.581L117.649 162.542C117.654 162.609 117.647 162.676 117.626 162.74C117.606 162.803 117.573 162.862 117.529 162.913C117.486 162.964 117.433 163.006 117.373 163.036C117.314 163.067 117.248 163.085 117.182 163.09H117.141Z" fill="#231F20"/>
<path d="M106.687 170.662H106.616C106.482 170.644 106.362 170.575 106.28 170.468C106.198 170.362 106.162 170.227 106.179 170.094L107.945 156.422C107.963 156.287 108.033 156.165 108.141 156.082C108.248 155.999 108.384 155.963 108.519 155.98C108.653 155.998 108.775 156.068 108.858 156.175C108.941 156.283 108.978 156.419 108.96 156.554L107.194 170.226C107.177 170.348 107.116 170.459 107.023 170.539C106.929 170.62 106.81 170.663 106.687 170.662Z" fill="#231F20"/>
<path d="M123.444 173.565C123.324 173.566 123.207 173.524 123.116 173.445C123.024 173.367 122.964 173.258 122.947 173.139L121.1 161.974C121.079 161.841 121.111 161.705 121.188 161.595C121.266 161.485 121.384 161.41 121.516 161.385C121.649 161.364 121.785 161.396 121.895 161.474C122.004 161.551 122.08 161.669 122.105 161.801L123.952 172.966C123.972 173.098 123.94 173.233 123.862 173.341C123.784 173.449 123.667 173.522 123.536 173.545L123.444 173.565Z" fill="#231F20"/>
<path d="M63.204 81.1188C63.0702 81.1162 62.9427 81.0619 62.8481 80.9673C62.7534 80.8727 62.6991 80.7451 62.6965 80.6113V77.3735C62.6965 77.2389 62.75 77.1098 62.8452 77.0146C62.9404 76.9195 63.0694 76.866 63.204 76.866C63.3386 76.866 63.4677 76.9195 63.5629 77.0146C63.6581 77.1098 63.7115 77.2389 63.7115 77.3735V80.6113C63.7115 80.7459 63.6581 80.875 63.5629 80.9702C63.4677 81.0654 63.3386 81.1188 63.204 81.1188Z" fill="#D1D3D4"/>
<path d="M63.204 87.8788C63.0694 87.8788 62.9404 87.8253 62.8452 87.7301C62.75 87.6349 62.6965 87.5059 62.6965 87.3713V84.103C62.6965 83.9684 62.75 83.8393 62.8452 83.7441C62.9404 83.6489 63.0694 83.5955 63.204 83.5955C63.3386 83.5955 63.4677 83.6489 63.5629 83.7441C63.6581 83.8393 63.7115 83.9684 63.7115 84.103V87.3408C63.7157 87.41 63.7056 87.4792 63.682 87.5444C63.6584 87.6095 63.6217 87.6691 63.5741 87.7195C63.5266 87.7699 63.4692 87.81 63.4056 87.8374C63.3419 87.8648 63.2733 87.8789 63.204 87.8788Z" fill="#D1D3D4"/>
<path d="M68.208 82.8748H64.9701C64.8355 82.8748 64.7065 82.8213 64.6113 82.7262C64.5161 82.631 64.4626 82.5019 64.4626 82.3673C64.4626 82.2327 64.5161 82.1036 64.6113 82.0084C64.7065 81.9133 64.8355 81.8598 64.9701 81.8598H68.208C68.3426 81.8598 68.4717 81.9133 68.5668 82.0084C68.662 82.1036 68.7155 82.2327 68.7155 82.3673C68.7155 82.5019 68.662 82.631 68.5668 82.7262C68.4717 82.8213 68.3426 82.8748 68.208 82.8748Z" fill="#D1D3D4"/>
<path d="M61.4481 82.8748H58.2001C58.0655 82.8748 57.9365 82.8213 57.8413 82.7262C57.7461 82.631 57.6926 82.5019 57.6926 82.3673C57.6952 82.2335 57.7495 82.1059 57.8441 82.0113C57.9388 81.9167 58.0663 81.8624 58.2001 81.8598H61.4481C61.5819 81.8624 61.7095 81.9167 61.8041 82.0113C61.8987 82.1059 61.953 82.2335 61.9556 82.3673C61.9556 82.5019 61.9022 82.631 61.807 82.7262C61.7118 82.8213 61.5827 82.8748 61.4481 82.8748Z" fill="#D1D3D4"/>
<path d="M31.9319 94.4966C31.7973 94.4966 31.6682 94.4431 31.573 94.3479C31.4778 94.2527 31.4244 94.1237 31.4244 93.9891V90.7512C31.4244 90.6166 31.4778 90.4875 31.573 90.3924C31.6682 90.2972 31.7973 90.2437 31.9319 90.2437C32.0665 90.2437 32.1956 90.2972 32.2907 90.3924C32.3859 90.4875 32.4394 90.6166 32.4394 90.7512V93.9891C32.4394 94.1237 32.3859 94.2527 32.2907 94.3479C32.1956 94.4431 32.0665 94.4966 31.9319 94.4966Z" fill="#D1D3D4"/>
<path d="M31.9319 101.267C31.7973 101.267 31.6682 101.213 31.573 101.118C31.4778 101.023 31.4244 100.894 31.4244 100.759V97.5212C31.4244 97.3866 31.4778 97.2575 31.573 97.1624C31.6682 97.0672 31.7973 97.0137 31.9319 97.0137C32.0665 97.0137 32.1956 97.0672 32.2907 97.1624C32.3859 97.2575 32.4394 97.3866 32.4394 97.5212V100.759C32.4394 100.894 32.3859 101.023 32.2907 101.118C32.1956 101.213 32.0665 101.267 31.9319 101.267Z" fill="#D1D3D4"/>
<path d="M36.9358 96.2829H33.698C33.5634 96.2829 33.4343 96.2295 33.3391 96.1343C33.244 96.0391 33.1905 95.91 33.1905 95.7754C33.1905 95.6408 33.244 95.5118 33.3391 95.4166C33.4343 95.3214 33.5634 95.2679 33.698 95.2679H36.9358C37.0704 95.2679 37.1995 95.3214 37.2947 95.4166C37.3899 95.5118 37.4433 95.6408 37.4433 95.7754C37.4433 95.91 37.3899 96.0391 37.2947 96.1343C37.1995 96.2295 37.0704 96.2829 36.9358 96.2829Z" fill="#D1D3D4"/>
<path d="M30.1658 96.2829H26.928C26.7934 96.2829 26.6643 96.2295 26.5691 96.1343C26.4739 96.0391 26.4205 95.91 26.4205 95.7754C26.4205 95.6408 26.4739 95.5118 26.5691 95.4166C26.6643 95.3214 26.7934 95.2679 26.928 95.2679H30.1658C30.3004 95.2679 30.4295 95.3214 30.5247 95.4166C30.6198 95.5118 30.6733 95.6408 30.6733 95.7754C30.6733 95.91 30.6198 96.0391 30.5247 96.1343C30.4295 96.2295 30.3004 96.2829 30.1658 96.2829Z" fill="#D1D3D4"/>
<path d="M163.385 72.1767C163.25 72.1767 163.121 72.1232 163.026 72.028C162.931 71.9329 162.877 71.8038 162.877 71.6692V68.4313C162.877 68.2967 162.931 68.1676 163.026 68.0725C163.121 67.9773 163.25 67.9238 163.385 67.9238C163.519 67.9238 163.648 67.9773 163.743 68.0725C163.839 68.1676 163.892 68.2967 163.892 68.4313V71.6692C163.892 71.8038 163.839 71.9329 163.743 72.028C163.648 72.1232 163.519 72.1767 163.385 72.1767Z" fill="#D1D3D4"/>
<path d="M163.385 78.9366C163.25 78.9366 163.121 78.8831 163.026 78.7879C162.931 78.6928 162.877 78.5637 162.877 78.4291V75.1912C162.88 75.0575 162.934 74.9299 163.029 74.8353C163.123 74.7406 163.251 74.6863 163.385 74.6837C163.519 74.6837 163.648 74.7372 163.743 74.8324C163.839 74.9276 163.892 75.0566 163.892 75.1912V78.4291C163.892 78.5637 163.839 78.6928 163.743 78.7879C163.648 78.8831 163.519 78.9366 163.385 78.9366Z" fill="#D1D3D4"/>
<path d="M168.388 73.953H165.151C165.016 73.953 164.887 73.8995 164.792 73.8043C164.697 73.7091 164.643 73.5801 164.643 73.4455C164.643 73.3109 164.697 73.1818 164.792 73.0866C164.887 72.9914 165.016 72.938 165.151 72.938H168.388C168.523 72.938 168.652 72.9914 168.747 73.0866C168.843 73.1818 168.896 73.3109 168.896 73.4455C168.896 73.5801 168.843 73.7091 168.747 73.8043C168.652 73.8995 168.523 73.953 168.388 73.953Z" fill="#D1D3D4"/>
<path d="M161.629 73.953H158.391C158.256 73.953 158.127 73.8995 158.032 73.8043C157.937 73.7091 157.883 73.5801 157.883 73.4455C157.883 73.3109 157.937 73.1818 158.032 73.0866C158.127 72.9914 158.256 72.938 158.391 72.938H161.629C161.763 72.938 161.892 72.9914 161.987 73.0866C162.083 73.1818 162.136 73.3109 162.136 73.4455C162.133 73.5792 162.079 73.7068 161.985 73.8014C161.89 73.8961 161.762 73.9504 161.629 73.953Z" fill="#D1D3D4"/>
<path d="M199.996 91.1166C199.861 91.1166 199.732 91.0631 199.637 90.968C199.542 90.8728 199.488 90.7437 199.488 90.6091V87.3713C199.488 87.2367 199.542 87.1076 199.637 87.0124C199.732 86.9172 199.861 86.8638 199.996 86.8638C200.13 86.8638 200.259 86.9172 200.354 87.0124C200.45 87.1076 200.503 87.2367 200.503 87.3713V90.6091C200.503 90.7437 200.45 90.8728 200.354 90.968C200.259 91.0631 200.13 91.1166 199.996 91.1166Z" fill="#D1D3D4"/>
<path d="M199.996 97.8765C199.861 97.8765 199.732 97.823 199.637 97.7279C199.542 97.6327 199.488 97.5036 199.488 97.369V94.1312C199.488 93.9966 199.542 93.8675 199.637 93.7723C199.732 93.6771 199.861 93.6237 199.996 93.6237C200.129 93.6263 200.257 93.6806 200.352 93.7752C200.446 93.8698 200.5 93.9974 200.503 94.1312V97.369C200.503 97.5036 200.45 97.6327 200.354 97.7279C200.259 97.823 200.13 97.8765 199.996 97.8765Z" fill="#D1D3D4"/>
<path d="M204.989 92.8827H201.752C201.618 92.8801 201.49 92.8258 201.396 92.7312C201.301 92.6365 201.247 92.509 201.244 92.3752C201.244 92.2406 201.297 92.1115 201.393 92.0163C201.488 91.9211 201.617 91.8677 201.752 91.8677H204.989C205.124 91.8677 205.253 91.9211 205.348 92.0163C205.443 92.1115 205.497 92.2406 205.497 92.3752C205.497 92.5098 205.443 92.6389 205.348 92.734C205.253 92.8292 205.124 92.8827 204.989 92.8827Z" fill="#D1D3D4"/>
<path d="M198.229 92.8827H194.992C194.857 92.8827 194.728 92.8292 194.633 92.734C194.538 92.6389 194.484 92.5098 194.484 92.3752C194.484 92.2406 194.538 92.1115 194.633 92.0163C194.728 91.9211 194.857 91.8677 194.992 91.8677H198.229C198.364 91.8677 198.493 91.9211 198.588 92.0163C198.684 92.1115 198.737 92.2406 198.737 92.3752C198.737 92.5098 198.684 92.6389 198.588 92.734C198.493 92.8292 198.364 92.8827 198.229 92.8827Z" fill="#D1D3D4"/>
<path d="M176.772 41.5542C176.638 41.5542 176.509 41.5007 176.414 41.4055C176.318 41.3103 176.265 41.1812 176.265 41.0467V37.8088C176.265 37.6742 176.318 37.5451 176.414 37.4499C176.509 37.3548 176.638 37.3013 176.772 37.3013C176.907 37.3013 177.036 37.3548 177.131 37.4499C177.226 37.5451 177.28 37.6742 177.28 37.8088V41.0467C177.28 41.1812 177.226 41.3103 177.131 41.4055C177.036 41.5007 176.907 41.5542 176.772 41.5542Z" fill="#D1D3D4"/>
<path d="M176.772 48.3242C176.638 48.3242 176.509 48.2707 176.414 48.1756C176.318 48.0804 176.265 47.9513 176.265 47.8167V44.5789C176.265 44.4443 176.318 44.3152 176.414 44.22C176.509 44.1248 176.638 44.0714 176.772 44.0714C176.907 44.0714 177.036 44.1248 177.131 44.22C177.226 44.3152 177.28 44.4443 177.28 44.5789V47.8167C177.28 47.9513 177.226 48.0804 177.131 48.1756C177.036 48.2707 176.907 48.3242 176.772 48.3242Z" fill="#D1D3D4"/>
<path d="M181.776 43.3202H178.538C178.404 43.3202 178.275 43.2668 178.18 43.1716C178.084 43.0764 178.031 42.9473 178.031 42.8127C178.031 42.6781 178.084 42.5491 178.18 42.4539C178.275 42.3587 178.404 42.3052 178.538 42.3052H181.776C181.911 42.3052 182.04 42.3587 182.135 42.4539C182.23 42.5491 182.284 42.6781 182.284 42.8127C182.284 42.9473 182.23 43.0764 182.135 43.1716C182.04 43.2668 181.911 43.3202 181.776 43.3202Z" fill="#D1D3D4"/>
<path d="M175.006 43.3202H171.768C171.634 43.3202 171.505 43.2668 171.41 43.1716C171.314 43.0764 171.261 42.9473 171.261 42.8127C171.261 42.6781 171.314 42.5491 171.41 42.4539C171.505 42.3587 171.634 42.3052 171.768 42.3052H175.006C175.141 42.3052 175.27 42.3587 175.365 42.4539C175.46 42.5491 175.514 42.6781 175.514 42.8127C175.514 42.9473 175.46 43.0764 175.365 43.1716C175.27 43.2668 175.141 43.3202 175.006 43.3202Z" fill="#D1D3D4"/>
<path d="M91.2688 201.549H91.1876C91.0546 201.533 90.933 201.466 90.8493 201.361C90.7657 201.257 90.7267 201.123 90.741 200.99C90.741 200.777 93.0958 180.355 83.7578 171.779C79.9617 168.287 74.6938 167.201 68.0963 168.551C68.0239 168.568 67.9483 168.568 67.8759 168.551C67.8035 168.533 67.7364 168.498 67.6802 168.449C67.6214 168.406 67.5734 168.349 67.54 168.284C67.5065 168.219 67.4885 168.147 67.4873 168.074C67.4873 167.881 66.8377 148.789 54.7897 140.74C47.7456 136.03 38.1843 135.909 26.3697 140.405C26.2845 140.435 26.1928 140.443 26.1038 140.427C26.0147 140.411 25.9314 140.372 25.8622 140.314C25.7932 140.252 25.7411 140.175 25.7109 140.088C25.6807 140 25.6734 139.907 25.6896 139.816C25.6896 139.735 27.4963 131.412 22.9086 126.987C19.7214 123.942 14.1998 123.383 6.50615 125.403C6.44148 125.422 6.37379 125.426 6.30716 125.418C6.24053 125.409 6.17635 125.387 6.11849 125.353C6.06063 125.319 6.01028 125.273 5.9705 125.219C5.93071 125.165 5.9023 125.103 5.887 125.038C5.85276 124.909 5.87086 124.771 5.93737 124.655C6.00388 124.539 6.11343 124.454 6.24224 124.419C14.3013 122.308 20.1477 122.927 23.619 126.266C27.679 130.225 27.202 136.761 26.8467 139.146C38.6004 134.843 48.1617 135.086 55.3581 139.908C61.8947 144.292 65.1224 151.712 66.6754 157.163C67.6267 160.515 68.2288 163.958 68.4719 167.434C75.1404 166.196 80.5098 167.434 84.448 171.028C94.1615 179.96 91.8575 200.239 91.756 201.092C91.7438 201.214 91.6877 201.328 91.5981 201.412C91.5085 201.496 91.3915 201.544 91.2688 201.549Z" fill="#D1D3D4"/>
<path d="M191.48 198.707C169.451 218.848 140.403 229.548 110.572 228.51C80.7415 227.472 52.5073 214.778 31.9319 193.155C32.6728 192.769 33.4341 192.414 34.2156 192.14C54.3025 184.02 65.2239 200.757 65.2239 200.757C65.2239 200.757 70.4613 173.098 102.353 173.098C134.244 173.098 141.664 194.86 141.664 194.86C141.664 194.86 148.21 181.665 162.623 182.619C177.036 183.573 179.219 201.579 179.219 201.579C183.08 199.834 187.245 198.858 191.48 198.707Z" fill="white"/>
<path d="M114.533 229.086C99.0093 229.152 83.6375 226.033 69.3673 219.923C55.0971 213.812 42.2317 204.84 31.5665 193.561C31.512 193.503 31.4716 193.434 31.4487 193.358C31.4258 193.282 31.4209 193.202 31.4345 193.124C31.445 193.046 31.4745 192.972 31.5206 192.908C31.5666 192.845 31.6277 192.793 31.6984 192.759C32.4542 192.36 33.23 192.001 34.0228 191.683C44.5991 187.389 52.6379 190.008 57.52 192.962C60.3849 194.709 62.9148 196.953 64.9904 199.59C66.4013 194.413 74.0544 172.601 102.353 172.601C130.316 172.601 139.786 189.44 141.735 193.723C143.582 190.678 150.352 181.34 162.654 182.122C175.696 182.944 179.026 197.499 179.614 200.848C183.375 199.278 187.387 198.398 191.459 198.25C191.562 198.249 191.664 198.278 191.75 198.334C191.837 198.39 191.905 198.47 191.947 198.565C191.986 198.661 191.995 198.766 191.973 198.867C191.951 198.969 191.9 199.061 191.825 199.133C170.715 218.434 143.136 229.122 114.533 229.086ZM32.7743 193.297C53.1324 214.446 80.8919 226.886 110.226 228.007C139.56 229.127 168.187 218.84 190.099 199.305C186.435 199.583 182.846 200.493 179.493 201.995C179.42 202.033 179.34 202.052 179.259 202.052C179.178 202.052 179.098 202.033 179.026 201.995C178.955 201.955 178.894 201.9 178.849 201.833C178.803 201.766 178.773 201.69 178.762 201.61C178.284 198.482 177.322 195.448 175.91 192.617C172.865 186.659 168.419 183.482 162.644 183.096C148.728 182.223 142.232 194.931 142.171 195.053C142.125 195.141 142.055 195.215 141.969 195.265C141.882 195.316 141.784 195.34 141.684 195.337C141.583 195.331 141.487 195.295 141.407 195.234C141.327 195.172 141.268 195.088 141.237 194.992C141.156 194.779 133.523 173.575 102.403 173.575C71.2834 173.575 65.8126 200.534 65.7212 200.828C65.7024 200.927 65.6542 201.019 65.5829 201.091C65.5116 201.163 65.4204 201.212 65.3211 201.231C65.2218 201.251 65.1189 201.24 65.0256 201.201C64.9323 201.162 64.8529 201.095 64.7976 201.011C62.6947 198.099 60.0262 195.641 56.9516 193.784C50.1511 189.724 42.5691 189.277 34.4085 192.586C33.8705 192.789 33.3326 193.033 32.7743 193.297Z" fill="#231F20"/>
<path d="M153.712 204.218C153.64 204.219 153.57 204.203 153.505 204.174C153.44 204.144 153.382 204.1 153.336 204.045C146.799 196.829 141.156 195.022 137.512 194.779C135.334 194.58 133.143 194.994 131.189 195.976C131.075 196.033 130.944 196.045 130.822 196.01C130.7 195.976 130.595 195.896 130.528 195.787C130.462 195.679 130.439 195.549 130.463 195.425C130.488 195.3 130.558 195.189 130.661 195.113C130.762 195.053 141.024 188.932 154.087 203.365C154.15 203.44 154.191 203.53 154.205 203.626C154.219 203.722 154.206 203.82 154.167 203.909C154.127 203.998 154.064 204.075 153.983 204.129C153.903 204.184 153.809 204.215 153.712 204.218Z" fill="#231F20"/>
<path d="M176.793 180.295C176.665 180.295 176.542 180.247 176.447 180.16C176.353 180.074 176.295 179.955 176.285 179.828C176.285 179.422 175.615 169.962 182.375 163.385C187.349 158.533 194.981 156.594 205.05 157.64C205.117 157.646 205.182 157.666 205.241 157.698C205.3 157.729 205.352 157.772 205.394 157.824C205.437 157.876 205.468 157.936 205.488 158C205.507 158.064 205.514 158.131 205.507 158.198C205.5 158.265 205.481 158.329 205.449 158.388C205.417 158.447 205.374 158.5 205.323 158.542C205.271 158.584 205.211 158.616 205.147 158.635C205.083 158.655 205.015 158.661 204.949 158.655C195.195 157.64 187.836 159.487 183.086 164.115C176.671 170.368 177.3 179.665 177.31 179.757C177.316 179.823 177.308 179.89 177.288 179.954C177.267 180.018 177.234 180.077 177.191 180.128C177.147 180.179 177.094 180.221 177.035 180.251C176.975 180.281 176.91 180.3 176.843 180.305L176.793 180.295Z" fill="#D1D3D4"/>
<path d="M58.2001 56.8198C55.4298 56.8198 52.7217 55.9983 50.4182 54.4592C48.1148 52.92 46.3195 50.7324 45.2593 48.173C44.1992 45.6136 43.9218 42.7972 44.4623 40.0801C45.0027 37.363 46.3368 34.8672 48.2957 32.9083C50.2546 30.9494 52.7504 29.6154 55.4675 29.0749C58.1846 28.5344 61.0009 28.8118 63.5604 29.872C66.1198 30.9321 68.3074 32.7274 69.8465 35.0309C71.3856 37.3343 72.2071 40.0424 72.2071 42.8128C72.2044 46.5268 70.7278 50.088 68.1016 52.7142C65.4754 55.3405 61.9142 56.8171 58.2001 56.8198ZM58.2001 29.8208C55.6305 29.8208 53.1187 30.5827 50.9822 32.0103C48.8456 33.4379 47.1804 35.467 46.1971 37.8409C45.2138 40.2149 44.9565 42.8272 45.4578 45.3474C45.9591 47.8676 47.1964 50.1825 49.0134 51.9995C50.8304 53.8165 53.1453 55.0538 55.6655 55.5551C58.1857 56.0564 60.798 55.7991 63.1719 54.8158C65.5459 53.8325 67.575 52.1673 69.0026 50.0307C70.4302 47.8942 71.1921 45.3823 71.1921 42.8128C71.1894 39.3679 69.8198 36.0649 67.3839 33.629C64.948 31.1931 61.645 29.8234 58.2001 29.8208Z" fill="#D1D3D4"/>
<path d="M41.5237 160.735C41.4285 160.736 41.3353 160.709 41.2545 160.659C41.1738 160.609 41.1088 160.537 41.0669 160.451C28.8869 135.076 11.0534 143.024 10.8808 143.105C10.7583 143.163 10.6179 143.17 10.4903 143.124C10.3628 143.078 10.2586 142.984 10.2008 142.861C10.1429 142.739 10.136 142.598 10.1817 142.471C10.2274 142.343 10.3219 142.239 10.4444 142.181C10.6271 142.1 29.3335 133.696 41.9804 160.005C42.0099 160.065 42.0272 160.13 42.0314 160.196C42.0356 160.263 42.0266 160.33 42.0049 160.393C41.9832 160.456 41.9492 160.515 41.905 160.565C41.8607 160.615 41.807 160.655 41.747 160.685C41.6782 160.721 41.6012 160.738 41.5237 160.735Z" fill="#D1D3D4"/>
</svg>
